<?xml version="1.0" encoding="UTF-8" standalone="no"?>
<!DOCTYPE svg PUBLIC "-//W3C//DTD SVG 1.1//EN" "http://www.w3.org/Graphics/SVG/1.1/DTD/svg11.dtd">
<svg width="100%" height="100%" viewBox="0 0 300 300" version="1.1" xmlns="http://www.w3.org/2000/svg" xmlns:xlink="http://www.w3.org/1999/xlink" xml:space="preserve" xmlns:serif="http://www.serif.com/" style="fill-rule:evenodd;clip-rule:evenodd;stroke-linejoin:round;stroke-miterlimit:1.41421;">
    <g transform="matrix(0.016963,0,0,-0.016963,-475,450)">
        <g id="africa">
            <path d="M34320,25577.5C34235,25530 34110,25525 34047.5,25565C34032.5,25575 34010,25567.5 34000,25552.5C33987.5,25530 33965,25530 33912.5,25555C33857.5,25580 33840,25580 33830,25555C33825,25540 33802.5,25525 33777.5,25525C33755,25525 33720,25510 33705,25495C33680,25470 33662.5,25470 33625,25495C33557.5,25535 33487.5,25532.5 33150,25477.5C32867.5,25430 32700,25372.5 32700,25320C32700,25307.5 32682.5,25300 32662.5,25307.5C32642.5,25317.5 32620,25312.5 32612.5,25300C32602.5,25285 32580,25275 32560,25275C32540,25275 32495,25247.5 32460,25212.5C32425,25177.5 32385,25150 32367.5,25147.5C32305,25142.5 32212.5,25155 32192.5,25172.5C32182.5,25182.5 32110,25182.5 32030,25172.5C31872.5,25150 31780,25187.5 31757.5,25277.5C31742.5,25327.5 31707.5,25337.5 31660,25305C31645,25295 31605,25225 31572.5,25150C31487.5,24947.5 31430,24880 31275,24807.5C31125,24735 30975,24602.5 30975,24540C30975,24517.5 30950,24462.5 30920,24422.5C30875,24362.5 30862.5,24312.5 30862.5,24187.5C30862.5,24092.5 30850,24015 30832.5,23997.5C30815,23980 30800,23952.5 30800,23937.5C30800,23925 30760,23877.5 30710,23837.5C30660,23795 30597.5,23742.5 30570,23717.5C30512.5,23665 30370,23600 30312.5,23600C30257.5,23600 30222.5,23560 30157.5,23420C30125,23352.5 30090,23300 30080,23300C30012.5,23300 29875,23095 29875,22992.5C29875,22932.5 29810,22832.5 29710,22737.5C29680,22710 29630,22620 29597.5,22537.5C29567.5,22455 29522.5,22372.5 29497.5,22357.5C29475,22340 29447.5,22285 29437.5,22232.5C29430,22180 29415,22110 29407.5,22077.5C29397.5,22035 29402.5,22022.5 29427.5,22030C29445,22035 29487.5,22012.5 29517.5,21980C29575,21917.5 29592.5,21850 29552.5,21850C29510,21850 29497.5,21725 29537.5,21667.5C29590,21592.5 29585,21377.5 29525,21225C29497.5,21155 29475,21070 29475,21032.5C29475,20957.5 29352.5,20750 29307.5,20750C29290,20750 29275,20740 29275,20725C29275,20712.5 29292.5,20700 29312.5,20700C29335,20700 29362.5,20670 29377.5,20632.5C29392.5,20592.5 29415,20542.5 29427.5,20520C29440,20495 29440,20472.5 29425,20462.5C29410,20455 29400,20395 29400,20330C29402.5,20232.5 29415,20200 29475,20140C29557.5,20060 29572.5,20017.5 29510,20042.5C29477.5,20055 29472.5,20047.5 29487.5,19997.5C29515,19910 29532.5,19900 29587.5,19942.5C29622.5,19970 29627.5,19985 29607.5,19992.5C29570,20005 29562.5,20075 29597.5,20075C29610,20075 29632.5,20042.5 29647.5,20000C29660,19960 29685,19925 29697.5,19925C29712.5,19925 29725,19907.5 29725,19887.5C29725,19867.5 29742.5,19850 29762.5,19850C29782.5,19850 29800,19842.5 29800,19830C29800,19820 29857.5,19752.5 29925,19677.5C30005,19590 30050,19520 30052.5,19477.5C30055,19372.5 30070,19317.5 30102.5,19300C30117.5,19290 30122.5,19267.5 30115,19252.5C30105,19237.5 30107.5,19225 30122.5,19225C30137.5,19225 30142.5,19210 30137.5,19195C30130,19175 30167.5,19145 30230,19117.5C30335,19075 30422.5,19005 30722.5,18735C31025,18462.5 31100,18440 31327.5,18550C31567.5,18665 31945,18675 32155,18572.5C32182.5,18560 32225,18565 32267.5,18587.5C32497.5,18702.5 32670,18775 32720,18775C32750,18775 32782.5,18792.5 32790,18810C32807.5,18857.5 33010,18900 33242.5,18905C33390,18910 33430,18902.5 33475,18862.5C33537.5,18805 33625,18645 33625,18590C33625,18570 33650,18527.5 33682.5,18500C33725,18457.5 33757.5,18450 33825,18462.5C33872.5,18470 33957.5,18482.5 34012.5,18487.5C34067.5,18495 34147.5,18502.5 34192.5,18507.5C34257.5,18517.5 34275,18507.5 34285,18460C34292.5,18430 34322.5,18395 34350,18387.5C34377.5,18380 34400,18357.5 34400,18340C34400,18320 34415,18292.5 34435,18277.5C34482.5,18237.5 34460,17995 34397.5,17870C34365,17807.5 34360,17775 34380,17770C34397.5,17762.5 34402.5,17742.5 34387.5,17710C34377.5,17685 34362.5,17612.5 34357.5,17550C34345,17442.5 34312.5,17390 34270,17415C34237.5,17435 34247.5,17365 34285,17285C34305,17245 34340,17167.5 34365,17112.5C34390,17057.5 34452.5,16972.5 34500,16925C34677.5,16752.5 34900,16422.5 34900,16330C34900,16300 34912.5,16270 34925,16262.5C34940,16252.5 34945,16237.5 34937.5,16225C34930,16212.5 34950,16142.5 34985,16070C35017.5,15997.5 35065,15877.5 35092.5,15805C35137.5,15675 35137.5,15670 35090,15637.5C35045,15602.5 35045,15595 35125,15395C35180,15255 35205,15150 35202.5,15075C35197.5,14945 35157.5,14825 35115,14825C35067.5,14822.5 34952.5,14615 34935,14497.5C34915,14347.5 34850,14125 34830,14125C34797.5,14125 34812.5,13665 34847.5,13582.5C34865,13537.5 34890,13500 34897.5,13500C34922.5,13500 35030,13277.5 35137.5,13012.5C35160,12957.5 35207.5,12862.5 35245,12800C35297.5,12710 35312.5,12652.5 35315,12512.5C35317.5,12417.5 35330,12282.5 35345,12212.5C35360,12145 35390,11987.5 35412.5,11865C35460,11607.5 35495,11527.5 35625,11385C35685,11320 35737.5,11222.5 35775,11110C35835,10925 35917.5,10745 35952.5,10722.5C35965,10715 35982.5,10657.5 35990,10592.5C36005,10495 36000,10475 35967.5,10475C35947.5,10475 35925,10460 35917.5,10445C35907.5,10410 35947.5,10325 35985,10297.5C35997.5,10287.5 36002.5,10252.5 35995,10217.5C35977.5,10132.5 36015,10072.5 36050,10125C36065,10150 36075,10152.5 36075,10132.5C36075,10115 36090,10100 36107.5,10100C36127.5,10100 36162.5,10077.5 36187.5,10050C36242.5,9987.5 36292.5,9987.5 36355,10042.5C36385,10070 36440,10085 36505,10082.5C36562.5,10080 36632.5,10095 36667.5,10117.5C36740,10165 36920,10177.5 37057.5,10145C37122.5,10130 37165,10130 37187.5,10150C37207.5,10165 37247.5,10175 37280,10170C37312.5,10165 37335,10175 37332.5,10190C37330,10207.5 37375,10225 37435,10230C37567.5,10245 37820,10410 37962.5,10570C37990,10602.5 38055,10670 38110,10720C38202.5,10810 38375,11055 38375,11097.5C38375,11130 38542.5,11300 38575,11300C38602.5,11300 38647.5,11392.5 38710,11587.5C38755,11727.5 38765,11912.5 38725,11887.5C38680,11860 38700,11920 38757.5,11987.5C38787.5,12022.5 38892.5,12082.5 38987.5,12122.5C39115,12172.5 39177.5,12215 39220,12275C39255,12327.5 39267.5,12367.5 39252.5,12382.5C39237.5,12397.5 39237.5,12430 39255,12472.5C39287.5,12552.5 39282.5,12752.5 39250,12785C39235,12800 39225,12822.5 39225,12835C39225,12850 39237.5,12845 39250,12825C39270,12795 39275,12797.5 39275,12845C39275,12875 39262.5,12897.5 39245,12895C39227.5,12890 39215,12922.5 39212.5,12975C39210,13022.5 39195,13065 39177.5,13070C39162.5,13075 39150,13105 39150,13135C39150,13200 39375,13450 39435,13450C39457.5,13450 39475,13460 39475,13470C39475,13480 39495,13517.5 39520,13550C39610,13672.5 39702.5,13745 39842.5,13802.5C39922.5,13832.5 39992.5,13867.5 40000,13875C40007.5,13885 40030,13902.5 40052.5,13915C40117.5,13950 40285,14177.5 40320,14280C40345,14352.5 40345,14397.5 40325,14480C40307.5,14540 40297.5,14727.5 40300,14912.5C40307.5,15330 40310,15312.5 40242.5,15342.5C40195,15365 40172.5,15407.5 40142.5,15542.5C40087.5,15760 40090,15792.5 40150,15807.5C40177.5,15815 40200,15835 40200,15850C40200,15867.5 40182.5,15875 40162.5,15865C40112.5,15847.5 40082.5,15917.5 40117.5,15972.5C40137.5,16005 40127.5,16035 40072.5,16102.5C40032.5,16147.5 40000,16205 40000,16225C40000,16277.5 40082.5,16510 40107.5,16527.5C40132.5,16545 40247.5,16810 40267.5,16895C40275,16925 40305,16962.5 40332.5,16977.5C40410,17020 40540,17160 40590,17252.5C40697.5,17465 41035,17827.5 41240,17957.5C41375,18042.5 41772.5,18477.5 41775,18542.5C41775,18552.5 41815,18625 41862.5,18700C41910,18775 41950,18855 41950,18880C41950,18930 42102.5,19257.5 42132.5,19270C42142.5,19275 42150,19290 42150,19305C42150,19317.5 42177.5,19385 42212.5,19455C42247.5,19522.5 42275,19617.5 42275,19667.5C42275,19732.5 42287.5,19757.5 42325,19767.5C42377.5,19782.5 42392.5,19815 42350,19830C42327.5,19837.5 42315,19970 42330,20060C42342.5,20130 42237.5,20160 42182.5,20102.5C42127.5,20047.5 41912.5,19972.5 41860,19992.5C41840,20000 41795,19992.5 41762.5,19975C41730,19957.5 41677.5,19950 41647.5,19957.5C41615,19967.5 41567.5,19952.5 41525,19920C41475,19885 41430,19872.5 41372.5,19880C41317.5,19887.5 41262.5,19877.5 41212.5,19847.5C41082.5,19767.5 40987.5,19800 40887.5,19957.5C40862.5,19995 40817.5,20032.5 40782.5,20040L40722.5,20055L40780,20085C40875,20132.5 40865,20205 40745,20330C40685,20392.5 40620,20467.5 40600,20497.5C40580,20525 40552.5,20550 40537.5,20550C40525,20550 40492.5,20585 40470,20625C40445,20667.5 40407.5,20707.5 40382.5,20717.5C40357.5,20727.5 40322.5,20750 40305,20767.5C40287.5,20782.5 40257.5,20792.5 40240,20785C40217.5,20777.5 40202.5,20795 40195,20835C40185,20880 40192.5,20900 40217.5,20900C40247.5,20900 40247.5,20905 40215,20937.5C40167.5,20987.5 40157.5,20985 40140,20920C40125,20862.5 40122.5,20862.5 40087.5,20912.5C40065,20940 40037.5,21007.5 40025,21062.5C39955,21350 39920,21422.5 39797.5,21517.5C39657.5,21627.5 39622.5,21707.5 39615,21950C39610,22045 39592.5,22140 39577.5,22160C39560,22182.5 39542.5,22227.5 39540,22262.5C39540,22297.5 39532.5,22325 39525,22325C39517.5,22325 39465,22367.5 39405,22420C39287.5,22525 39217.5,22700 39295,22700C39322.5,22700 39315,22717.5 39267.5,22760C39232.5,22792.5 39172.5,22885 39130,22965C39090,23047.5 39032.5,23155 39002.5,23207.5C38975,23260 38950,23315 38950,23332.5C38950,23350 38930,23392.5 38907.5,23425C38882.5,23460 38860,23507.5 38857.5,23532.5C38852.5,23560 38810,23625 38762.5,23682.5C38715,23737.5 38675,23810 38675,23840C38675,23872.5 38665,23902.5 38652.5,23912.5C38637.5,23920 38620,24005 38610,24100C38602.5,24195 38580,24292.5 38562.5,24317.5C38497.5,24405 38200,24375 38090,24270C38060,24242.5 38017.5,24227.5 37987.5,24235C37960,24240 37887.5,24260 37825,24272.5C37762.5,24287.5 37690,24310 37662.5,24322.5C37572.5,24362.5 37405,24395 37342.5,24382.5C37295,24372.5 37275,24382.5 37262.5,24422.5C37250,24462.5 37225,24475 37167.5,24475C37032.5,24475 36907.5,24522.5 36892.5,24575C36885,24605 36857.5,24625 36830,24625C36800,24625 36770,24637.5 36762.5,24650C36725,24710 36487.5,24655 36375,24560C36297.5,24492.5 36275,24380 36322.5,24302.5C36362.5,24237.5 36262.5,24102.5 36172.5,24100C36152.5,24100 36090,24132.5 36035,24170C35932.5,24245 35775,24300 35672.5,24300C35585,24300 35507.5,24362.5 35487.5,24452.5C35475,24502.5 35447.5,24537.5 35405,24555C35367.5,24570 35305,24597.5 35265,24620C35220,24642.5 35135,24657.5 35060,24655C34977.5,24652.5 34895,24670 34827.5,24700C34727.5,24750 34660,24827.5 34692.5,24860C34700,24867.5 34690,24875 34667.5,24875C34645,24875 34625,24865 34625,24850C34625,24807.5 34552.5,24822.5 34525,24872.5C34505,24912.5 34515,24932.5 34575,24985C34617.5,25020 34667.5,25042.5 34687.5,25035C34707.5,25025 34725,25032.5 34725,25050C34725,25065 34712.5,25070 34700,25062.5C34682.5,25052.5 34680,25080 34690,25145C34702.5,25230 34697.5,25250 34652.5,25272.5C34590,25307.5 34585,25362.5 34640,25417.5C34660,25440 34672.5,25472.5 34665,25492.5C34657.5,25512.5 34662.5,25520 34675,25512.5C34690,25505 34700,25507.5 34700,25520C34700,25567.5 34665,25572.5 34620,25532.5C34575,25492.5 34572.5,25492.5 34560,25542.5C34547.5,25585 34487.5,25622.5 34425,25625C34417.5,25625 34370,25602.5 34320,25577.5ZM39090,17505C39110,17477.5 39112.5,17452.5 39095,17432.5C39082.5,17415 39077.5,17392.5 39085,17380C39100,17352.5 39047.5,17225 39020,17225C39007.5,17225 39000,17212.5 39000,17197.5C39000,17180 38980,17152.5 38957.5,17135C38915,17102.5 38915,17097.5 38957.5,17065C39020,17015 38982.5,17000 38850,17025C38782.5,17037.5 38725,17035 38707.5,17022.5C38660,16982.5 38647.5,17037.5 38662.5,17217.5C38687.5,17485 38690,17492.5 38792.5,17525C38845,17542.5 38897.5,17565 38910,17575C38937.5,17602.5 39050,17560 39090,17505ZM38225,16545C38225,16507.5 38237.5,16470 38252.5,16462.5C38267.5,16452.5 38272.5,16427.5 38265,16407.5C38257.5,16387.5 38262.5,16347.5 38277.5,16317.5C38300,16277.5 38300,16262.5 38277.5,16255C38227.5,16237.5 38247.5,16150 38310,16127.5C38370,16102.5 38400,16052.5 38400,15972.5C38400,15945 38427.5,15867.5 38462.5,15800C38540,15647.5 38540,15645 38462.5,15680C38422.5,15697.5 38402.5,15722.5 38412.5,15745C38420,15762.5 38407.5,15802.5 38387.5,15832.5C38367.5,15862.5 38350,15902.5 38350,15920C38350,15940 38317.5,15995 38275,16042.5C38235,16087.5 38197.5,16145 38195,16170C38195,16192.5 38190,16247.5 38185,16287.5C38180,16330 38172.5,16452.5 38167.5,16562.5C38160,16742.5 38162.5,16755 38190,16687.5C38207.5,16647.5 38222.5,16582.5 38225,16545ZM39125,15400C39140,15372.5 39155,15297.5 39160,15237.5C39162.5,15175 39180,15110 39195,15095C39232.5,15057.5 39235,14957.5 39200,14937.5C39165,14915 39185,14567.5 39222.5,14555C39237.5,14550 39250,14535 39250,14522.5C39250,14507.5 39240,14505 39225,14512.5C39212.5,14520 39200,14515 39200,14502.5C39200,14487.5 39187.5,14475 39172.5,14475C39157.5,14475 39152.5,14497.5 39162.5,14525C39172.5,14555 39167.5,14590 39155,14607.5C39130,14640 39092.5,14832.5 39097.5,14912.5C39115,15210 39110,15295 39082.5,15350C39065,15385 39050,15420 39050,15432.5C39050,15470 39100,15447.5 39125,15400Z" style="fill:rgb(167,179,166);fill-rule:nonzero;"/>
            <path d="M41900,14895C41880,14862.5 41862.5,14800 41857.5,14752.5C41850,14647.5 41835,14632.5 41775,14670C41735,14695 41725,14695 41725,14665C41725,14645 41740,14622.5 41757.5,14615C41772.5,14607.5 41762.5,14607.5 41732.5,14615C41675,14627.5 41665,14612.5 41672.5,14520C41675,14497.5 41665,14472.5 41650,14462.5C41637.5,14455 41625,14425 41625,14400C41625,14367.5 41612.5,14357.5 41587.5,14365C41565,14375 41550,14365 41550,14342.5C41550,14292.5 41372.5,14167.5 41237.5,14122.5C41182.5,14105 41127.5,14080 41115,14070C41100,14060 41065,14050 41032.5,14050C40987.5,14050 40975,14037.5 40975,13982.5C40975,13942.5 40952.5,13880 40927.5,13840C40877.5,13765 40877.5,13705 40927.5,13417.5C40957.5,13250 40957.5,13245 40885,13105C40845,13027.5 40802.5,12955 40792.5,12947.5C40705,12885 40672.5,12657.5 40735,12540C40755,12500 40765,12430 40757.5,12365C40750,12300 40755,12250 40772.5,12240C40787.5,12230 40800,12202.5 40800,12177.5C40800,12122.5 40875,12050 40932.5,12050C40955,12050 40975,12040 40975,12025C40975,11987.5 41105,11997.5 41160,12037.5C41187.5,12057.5 41240,12075 41277.5,12075C41352.5,12075 41450,12175 41450,12247.5C41450,12270 41465,12310 41485,12337.5C41502.5,12365 41532.5,12450 41550,12525C41570,12600 41605,12702.5 41627.5,12752.5C41652.5,12802.5 41687.5,12897.5 41702.5,12965C41720,13032.5 41775,13195 41827.5,13330C41880,13462.5 41930,13615 41937.5,13667.5C41967.5,13847.5 41975,13875 42007.5,13867.5C42037.5,13862.5 42040,13885 42010,14075L41992.5,14187.5L42042.5,14127.5L42092.5,14065L42135,14145C42165,14205 42170,14237.5 42150,14272.5C42137.5,14300 42125,14372.5 42125,14432.5C42125,14492.5 42112.5,14580 42097.5,14627.5C42062.5,14737.5 41965,14947.5 41950,14950C41942.5,14950 41920,14925 41900,14895Z" style="fill:rgb(167,179,166);fill-rule:nonzero;"/>
        </g>
    </g>
</svg>
