<?xml version="1.0" encoding="UTF-8" standalone="no"?>
<!DOCTYPE svg PUBLIC "-//W3C//DTD SVG 1.1//EN" "http://www.w3.org/Graphics/SVG/1.1/DTD/svg11.dtd">
<svg width="100%" height="100%" viewBox="0 0 342 332" version="1.1" xmlns="http://www.w3.org/2000/svg" xmlns:xlink="http://www.w3.org/1999/xlink" xml:space="preserve" xmlns:serif="http://www.serif.com/" style="fill-rule:evenodd;clip-rule:evenodd;stroke-linejoin:round;stroke-miterlimit:1.41421;">
    <g transform="matrix(0.925398,0,0,0.925398,-49.577,-309.85)">
        <path d="M68.368,541.129C68.368,541.129 89.563,507.486 113.502,497.359C119.984,503.755 156.73,600.35 163.212,599.278C170.504,598.213 218.539,510.183 322.414,348.697C322.414,348.697 352.477,366.649 407.79,370.395C263.16,519.625 188.348,665.087 181.791,672.12C163.154,683.844 153.603,677.06 147.121,671.731C131.725,653.612 69.177,545.388 68.368,541.125L68.368,541.129Z" style="fill:rgb(243,231,98);fill-rule:nonzero;"/>
        <path d="M324.743,338.508L327.705,339.683L327.762,339.716L327.815,339.747L327.916,339.805L328.06,339.886L328.247,339.99L328.476,340.115L328.748,340.262L329.063,340.429L329.427,340.62L329.614,340.717L329.819,340.822L330.034,340.932L330.26,341.046L330.497,341.165L330.743,341.288L331.001,341.415L331.268,341.547L331.547,341.682L331.835,341.822L332.134,341.965L332.444,342.112L332.764,342.262L333.094,342.417L333.434,342.574L333.785,342.735L334.147,342.9L334.518,343.067L334.9,343.238L335.292,343.412L335.695,343.588L336.107,343.768L336.53,343.95L336.964,344.135L337.407,344.323L337.861,344.513L338.325,344.705L338.798,344.9L339.283,345.097L339.777,345.296L340.281,345.497L340.796,345.7L341.321,345.905L341.855,346.112L342.4,346.32L342.955,346.53L343.52,346.742L344.095,346.954L344.68,347.169L345.275,347.384L345.88,347.601L346.495,347.818L347.12,348.037L347.755,348.256L348.4,348.476L349.055,348.697L349.719,348.918L350.394,349.14L351.078,349.363L351.773,349.585L352.477,349.808L353.191,350.031L353.915,350.254L354.649,350.477L355.392,350.7L356.15,350.925L356.526,351.034L356.909,351.146L357.294,351.257L357.681,351.368L358.072,351.478L358.464,351.589L358.859,351.7L359.256,351.81L359.656,351.92L360.059,352.03L360.463,352.14L360.87,352.25L361.28,352.359L361.692,352.468L362.106,352.577L362.523,352.686L362.942,352.795L363.364,352.903L363.788,353.011L364.215,353.118L364.643,353.226L365.075,353.333L365.508,353.439L365.944,353.546L366.383,353.652L366.824,353.757L367.267,353.863L367.713,353.968L368.161,354.072L368.612,354.176L369.065,354.28L369.52,354.383L369.978,354.486L370.438,354.588L370.9,354.69L371.365,354.792L371.832,354.893L372.302,354.993L372.774,355.093L373.248,355.192L373.725,355.291L374.205,355.39L374.686,355.488L375.17,355.585L375.656,355.682L376.145,355.778L376.636,355.873L377.129,355.968L377.625,356.062L378.123,356.156L378.624,356.249L379.127,356.341L379.632,356.433L380.14,356.524L380.65,356.614L381.162,356.704L381.677,356.793L382.194,356.881L382.713,356.969L383.235,357.055L383.759,357.141L384.285,357.227L384.814,357.311L385.345,357.395L385.879,357.478L386.414,357.56L386.953,357.641L387.493,357.721L388.036,357.801L388.581,357.88L389.129,357.958L389.678,358.035L390.231,358.111L390.785,358.186L391.342,358.26L391.901,358.333L392.463,358.406L393.026,358.477L393.592,358.548L394.161,358.617L394.732,358.686L395.305,358.753L395.88,358.82L396.458,358.886L397.038,358.95L397.62,359.014L398.205,359.076L398.792,359.138L399.381,359.198L399.973,359.257L400.567,359.315L401.163,359.372L401.761,359.428L402.362,359.483L402.965,359.537L403.571,359.589L404.178,359.641L404.788,359.691L405.4,359.74L406.015,359.788L406.632,359.834L407.251,359.88L407.872,359.924L408.508,359.968L411.4,360.586L414.003,361.99L416.109,364.067L417.548,366.651L418.206,369.534L418.031,372.486L417.035,375.271L415.299,377.666L414.455,378.537L413.617,379.404L412.78,380.272L411.944,381.139L411.11,382.006L410.278,382.874L409.448,383.741L408.618,384.608L407.791,385.474L406.965,386.341L406.141,387.208L405.318,388.074L404.497,388.94L403.677,389.806L402.859,390.672L402.042,391.538L401.228,392.404L400.414,393.269L399.603,394.134L398.792,394.999L397.984,395.864L397.177,396.729L396.371,397.593L395.568,398.457L394.765,399.321L393.965,400.185L393.166,401.048L392.368,401.912L391.572,402.775L390.778,403.637L389.985,404.5L389.194,405.362L388.404,406.224L387.616,407.086L386.829,407.947L386.045,408.808L385.261,409.669L384.48,410.53L383.699,411.39L382.921,412.25L382.144,413.109L381.368,413.968L380.595,414.827L379.822,415.686L379.052,416.544L378.282,417.402L377.515,418.26L376.749,419.117L375.985,419.974L375.222,420.83L374.461,421.686L373.701,422.542L372.943,423.397L372.186,424.252L371.432,425.106L370.678,425.96L369.926,426.814L369.176,427.667L368.428,428.52L367.681,429.373L366.935,430.224L366.191,431.076L365.449,431.927L364.708,432.778L363.969,433.628L363.232,434.477L362.496,435.326L361.761,436.175L361.028,437.023L360.297,437.871L359.568,438.718L358.84,439.565L358.113,440.411L357.388,441.257L356.665,442.102L355.943,442.947L355.223,443.791L354.504,444.634L353.787,445.477L353.072,446.32L352.358,447.162L351.645,448.003L350.935,448.844L350.225,449.684L349.518,450.524L348.812,451.362L348.108,452.201L347.405,453.039L346.703,453.876L346.004,454.712L345.306,455.548L344.609,456.384L343.914,457.218L343.222,458.051L341.839,459.719L340.463,461.382L339.093,463.043L337.73,464.701L336.374,466.357L335.023,468.009L333.679,469.659L332.341,471.306L331.009,472.95L329.684,474.591L328.365,476.228L327.052,477.863L325.746,479.495L324.446,481.123L323.152,482.748L321.865,484.37L320.584,485.988L319.309,487.604L318.04,489.215L316.778,490.823L315.522,492.428L314.272,494.029L313.029,495.626L311.792,497.22L310.561,498.81L309.337,500.396L308.119,501.979L306.907,503.557L305.701,505.132L304.502,506.702L303.309,508.269L302.123,509.831L300.942,511.39L299.768,512.944L298.6,514.494L297.439,516.04L296.284,517.581L295.135,519.119L293.992,520.651L292.856,522.18L291.726,523.703L290.603,525.223L289.485,526.737L288.374,528.247L287.269,529.753L286.171,531.253L285.079,532.749L283.993,534.24L282.913,535.726L281.84,537.207L280.773,538.683L279.712,540.154L278.658,541.621L277.609,543.081L276.568,544.537L275.532,545.988L274.503,547.433L273.48,548.873L272.463,550.308L271.453,551.737L270.448,553.161L269.451,554.579L268.459,555.991L267.474,557.399L266.495,558.8L265.522,560.196L264.556,561.586L263.596,562.97L262.642,564.348L261.694,565.721L260.753,567.087L259.818,568.448L258.889,569.802L257.967,571.151L257.051,572.493L256.141,573.829L255.237,575.159L254.34,576.482L253.449,577.8L252.564,579.111L251.686,580.415L250.813,581.713L249.947,583.005L249.088,584.29L248.235,585.568L247.387,586.84L246.547,588.105L245.712,589.363L244.884,590.614L244.062,591.859L243.246,593.097L242.437,594.327L241.633,595.551L240.837,596.768L240.046,597.977L239.262,599.18L238.483,600.375L237.712,601.563L236.946,602.744L236.187,603.918L235.434,605.084L234.687,606.242L233.947,607.394L233.212,608.537L232.484,609.674L231.763,610.802L231.047,611.923L230.338,613.036L229.635,614.142L228.938,615.239L228.248,616.329L227.564,617.411L226.886,618.485L226.214,619.551L225.549,620.609L224.89,621.659L224.237,622.7L223.59,623.734L222.95,624.759L222.316,625.776L221.688,626.785L221.066,627.785L220.451,628.777L219.842,629.761L219.239,630.736L218.642,631.702L218.052,632.659L216.889,634.55L215.752,636.405L214.64,638.224L213.552,640.008L212.49,641.756L211.452,643.467L210.44,645.142L209.452,646.78L208.489,648.38L207.55,649.942L206.637,651.466L205.748,652.952L204.884,654.398L204.045,655.806L203.23,657.173L201.674,659.791L198.855,664.538L197.592,666.662L196.995,667.663L196.422,668.622L195.873,669.539L195.347,670.414L194.844,671.248L194.363,672.04L193.903,672.792L193.468,673.498L193.254,673.843L193.048,674.174L192.845,674.496L192.648,674.809L192.455,675.112L192.265,675.408L192.079,675.695L191.897,675.974L191.717,676.247L191.538,676.513L191.361,676.774L191.184,677.031L191.005,677.286L190.823,677.539L190.636,677.795L190.439,678.055L190.228,678.325L190.018,678.584L189.874,678.755L189.74,678.911L189.594,679.076L189.496,679.182L187.34,680.977L187.104,681.125L186.853,681.281L186.601,681.436L186.35,681.589L186.101,681.74L185.851,681.89L185.602,682.038L185.353,682.184L185.104,682.329L184.857,682.472L184.609,682.614L184.362,682.754L184.115,682.892L183.869,683.029L183.624,683.164L183.378,683.297L183.133,683.429L182.888,683.56L182.644,683.689L182.401,683.816L182.158,683.941L181.915,684.065L181.672,684.188L181.43,684.309L181.189,684.428L180.947,684.545L180.706,684.662L180.465,684.776L180.225,684.889L179.985,685.001L179.745,685.111L179.507,685.219L179.268,685.326L179.029,685.431L178.791,685.535L178.553,685.637L178.316,685.737L178.079,685.837L177.841,685.934L177.605,686.03L177.369,686.125L177.133,686.218L176.898,686.309L176.663,686.399L176.428,686.487L176.194,686.574L175.958,686.66L175.725,686.744L175.492,686.826L175.259,686.906L175.025,686.986L174.792,687.063L174.56,687.14L174.328,687.214L174.096,687.288L173.865,687.359L173.633,687.429L173.402,687.498L173.172,687.565L172.942,687.631L172.712,687.695L172.482,687.757L172.252,687.819L172.023,687.878L171.796,687.936L171.567,687.993L171.338,688.048L171.111,688.101L170.883,688.153L170.656,688.204L170.429,688.253L170.202,688.3L169.977,688.346L169.751,688.391L169.525,688.434L169.3,688.475L169.075,688.515L168.851,688.554L168.626,688.591L168.402,688.626L168.179,688.66L167.957,688.693L167.733,688.724L167.512,688.753L167.29,688.781L167.067,688.808L166.846,688.833L166.627,688.857L166.407,688.879L166.186,688.899L165.966,688.919L165.748,688.936L165.529,688.953L165.31,688.967L165.094,688.981L164.877,688.992L164.659,689.003L164.442,689.012L164.228,689.019L164.012,689.025L163.796,689.03L163.583,689.033L163.37,689.035L163.157,689.036L162.943,689.034L162.73,689.032L162.52,689.028L162.31,689.023L162.098,689.016L161.888,689.008L161.68,688.999L161.472,688.988L161.264,688.976L161.056,688.963L160.848,688.948L160.643,688.932L160.438,688.914L160.232,688.895L160.028,688.875L159.825,688.854L159.623,688.831L159.421,688.808L159.219,688.782L159.018,688.756L158.82,688.728L158.621,688.699L158.422,688.669L158.224,688.637L158.028,688.605L157.832,688.571L157.636,688.536L157.443,688.5L157.248,688.463L157.055,688.424L156.864,688.385L156.673,688.345L156.482,688.303L156.276,688.256L155.917,688.171L155.544,688.078L155.175,687.981L154.81,687.88L154.447,687.775L154.089,687.667L153.734,687.555L153.383,687.439L153.037,687.321L152.694,687.199L152.354,687.073L152.019,686.945L151.687,686.814L151.359,686.681L151.035,686.545L150.716,686.406L150.4,686.266L150.087,686.122L149.78,685.977L149.475,685.83L149.175,685.681L148.879,685.531L148.587,685.379L148.298,685.225L148.014,685.071L147.733,684.915L147.456,684.758L147.183,684.6L146.914,684.441L146.649,684.282L146.387,684.121L146.129,683.96L145.874,683.799L145.623,683.638L145.377,683.476L145.134,683.315L144.894,683.153L144.658,682.992L144.425,682.83L144.196,682.669L143.971,682.509L143.748,682.349L143.53,682.19L143.315,682.031L143.103,681.873L142.894,681.716L142.689,681.561L142.488,681.406L142.281,681.247L141.903,680.951L141.529,680.653L141.168,680.363L140.82,680.081L140.498,679.816L139.131,678.47L138.926,678.226L138.695,677.949L138.463,677.665L138.229,677.377L137.994,677.085L137.757,676.786L137.518,676.482L137.278,676.172L137.035,675.857L136.789,675.535L136.541,675.208L136.291,674.875L136.038,674.536L135.782,674.191L135.523,673.839L135.262,673.482L134.998,673.119L134.731,672.749L134.461,672.374L134.189,671.993L133.914,671.605L133.635,671.212L133.354,670.812L133.071,670.407L132.784,669.996L132.494,669.578L132.201,669.155L131.906,668.727L131.608,668.292L131.307,667.852L131.003,667.406L130.697,666.954L130.388,666.497L130.074,666.031L129.444,665.093L128.801,664.129L128.148,663.144L127.485,662.139L126.812,661.114L126.129,660.068L125.437,659.004L124.736,657.92L124.026,656.819L123.307,655.699L122.579,654.562L121.844,653.409L121.101,652.239L120.35,651.053L119.592,649.852L118.827,648.636L118.055,647.406L117.277,646.162L116.493,644.906L115.703,643.636L114.907,642.355L114.107,641.061L113.301,639.757L112.491,638.442L111.676,637.118L110.858,635.784L110.036,634.441L109.21,633.089L108.381,631.73L107.549,630.364L106.715,628.991L105.879,627.612L105.041,626.227L104.201,624.837L103.36,623.442L102.518,622.044L101.675,620.642L100.832,619.237L99.989,617.83L99.146,616.421L98.304,615.011L97.462,613.6L96.622,612.189L95.783,610.778L94.946,609.369L94.111,607.96L93.279,606.554L92.449,605.151L91.622,603.75L90.799,602.353L89.979,600.961L89.163,599.573L88.351,598.191L87.544,596.814L86.742,595.444L85.945,594.081L85.153,592.726L84.367,591.378L83.588,590.039L82.814,588.71L82.048,587.39L81.288,586.08L80.536,584.781L79.791,583.494L79.055,582.218L78.326,580.955L77.606,579.705L76.895,578.469L76.193,577.246L75.501,576.038L74.818,574.846L74.146,573.669L73.483,572.508L72.832,571.364L72.191,570.238L71.562,569.129L70.944,568.039L70.338,566.968L69.745,565.916L69.164,564.884L68.595,563.873L68.04,562.883L67.498,561.914L66.97,560.967L66.455,560.043L65.955,559.142L65.469,558.264L64.998,557.411L64.542,556.582L64.101,555.777L63.676,554.998L63.266,554.245L62.872,553.518L62.495,552.817L62.134,552.143L61.789,551.495L61.46,550.875L61.149,550.281L60.854,549.714L60.575,549.173L60.312,548.659L60.065,548.168L59.838,547.709L59.724,547.475L59.616,547.253L59.512,547.035L59.411,546.82L59.312,546.607L59.215,546.394L59.119,546.18L59.024,545.962L58.928,545.738L58.831,545.501L58.73,545.246L58.624,544.963L58.51,544.636L58.383,544.241L58.262,543.806L58.173,543.437L58.135,543.254L58.221,543.246L57.916,541.129L57.916,541.125L58.363,538.1L59.574,535.531L59.547,535.523L59.624,535.402L59.666,535.335L59.667,535.334L59.668,535.332L59.834,535.075L59.992,534.832L60.175,534.552L60.387,534.23L60.628,533.866L60.898,533.464L61.195,533.023L61.52,532.545L61.872,532.032L62.251,531.484L62.656,530.903L63.083,530.295L63.311,529.972L63.543,529.647L63.781,529.314L64.024,528.975L64.275,528.628L64.531,528.274L64.793,527.914L65.062,527.547L65.336,527.174L65.617,526.794L65.903,526.409L66.195,526.017L66.493,525.62L66.797,525.218L67.107,524.81L67.422,524.396L67.743,523.978L68.07,523.555L68.402,523.127L68.739,522.694L69.083,522.257L69.431,521.815L69.785,521.37L70.144,520.92L70.509,520.467L70.878,520.01L71.253,519.549L71.634,519.086L72.019,518.619L72.409,518.148L72.805,517.675L73.205,517.2L73.611,516.722L74.021,516.241L74.436,515.758L74.856,515.273L75.281,514.786L75.711,514.297L76.145,513.807L76.585,513.315L77.028,512.822L77.477,512.328L77.93,511.833L78.388,511.337L78.85,510.84L79.317,510.343L79.788,509.845L80.263,509.347L80.743,508.849L81.228,508.351L81.717,507.854L82.205,507.361L82.458,507.108L82.707,506.86L82.958,506.612L83.209,506.364L83.461,506.117L83.715,505.869L83.97,505.622L84.225,505.375L84.482,505.129L84.74,504.882L84.999,504.637L85.259,504.391L85.519,504.146L85.781,503.901L86.044,503.657L86.308,503.413L86.574,503.169L86.84,502.926L87.107,502.684L87.375,502.442L87.644,502.2L87.914,501.959L88.186,501.719L88.458,501.48L88.731,501.24L89.006,501.002L89.281,500.764L89.558,500.527L89.835,500.29L90.113,500.055L90.393,499.82L90.673,499.585L90.955,499.352L91.237,499.119L91.521,498.887L91.806,498.656L92.091,498.426L92.378,498.197L92.665,497.968L92.954,497.741L93.244,497.514L93.534,497.289L93.826,497.064L94.119,496.84L94.413,496.618L94.708,496.396L95.003,496.176L95.3,495.956L95.598,495.738L95.897,495.521L96.197,495.305L96.498,495.09L96.8,494.876L97.103,494.664L97.407,494.453L97.712,494.243L98.019,494.034L98.326,493.827L98.634,493.621L98.944,493.416L99.254,493.213L99.566,493.011L99.878,492.811L100.192,492.612L100.507,492.414L100.823,492.218L101.14,492.024L101.458,491.831L101.777,491.639L102.097,491.449L102.418,491.261L102.741,491.075L103.064,490.89L103.389,490.707L103.715,490.525L104.042,490.346L104.37,490.168L104.699,489.992L105.029,489.817L105.361,489.645L105.693,489.474L106.027,489.306L106.362,489.139L106.698,488.975L107.035,488.812L107.374,488.651L107.714,488.493L108.054,488.337L108.397,488.182L108.74,488.03L109.084,487.88L109.397,487.747L112.399,486.965L115.497,487.099L118.42,488.136L120.91,489.985L121.011,490.087L121.169,490.252L121.319,490.412L121.459,490.567L121.592,490.719L121.738,490.889L121.954,491.15L122.172,491.426L122.376,491.694L122.568,491.955L122.752,492.212L122.927,492.466L123.098,492.719L123.263,492.971L123.425,493.222L123.584,493.475L123.741,493.729L123.896,493.985L124.051,494.244L124.204,494.505L124.357,494.769L124.511,495.038L124.664,495.309L124.818,495.585L124.972,495.865L125.127,496.149L125.282,496.438L125.439,496.731L125.597,497.029L125.755,497.331L125.915,497.639L126.076,497.951L126.239,498.268L126.403,498.59L126.568,498.916L126.734,499.248L126.902,499.585L127.072,499.926L127.245,500.278L127.589,500.98L127.941,501.707L128.299,502.454L128.664,503.22L129.034,504.004L129.411,504.808L129.793,505.629L130.181,506.468L130.575,507.325L130.975,508.199L131.381,509.089L131.791,509.995L132.208,510.918L132.629,511.855L133.055,512.808L133.487,513.774L133.923,514.755L134.363,515.749L134.809,516.756L135.258,517.775L135.712,518.806L136.17,519.85L137.097,521.966L138.038,524.123L138.992,526.315L139.958,528.539L140.934,530.79L141.919,533.063L143.91,537.662L144.914,539.978L145.921,542.301L146.93,544.624L147.94,546.945L148.948,549.259L149.956,551.563L150.457,552.707L150.959,553.848L151.458,554.984L151.957,556.114L152.453,557.238L152.948,558.355L153.441,559.465L153.932,560.567L154.42,561.661L154.906,562.745L155.389,563.82L155.869,564.885L156.346,565.94L156.82,566.983L157.29,568.014L157.757,569.032L158.22,570.038L158.678,571.03L159.132,572.008L159.582,572.971L160.027,573.919L160.467,574.85L160.901,575.765L161.331,576.663L161.754,577.543L162.172,578.404L162.584,579.246L162.991,580.072L163.189,580.471L163.387,580.869L163.584,581.262L163.779,581.649L163.972,582.03L164.082,582.247L164.193,582.084L164.47,581.678L164.752,581.263L165.038,580.839L165.328,580.408L165.623,579.968L165.922,579.52L166.226,579.064L166.534,578.599L166.847,578.127L167.162,577.649L167.811,576.66L168.476,575.642L169.158,574.592L169.857,573.51L170.574,572.396L171.308,571.25L172.059,570.073L172.827,568.865L173.613,567.625L174.416,566.354L175.236,565.052L176.074,563.719L176.928,562.355L177.8,560.96L178.69,559.534L179.596,558.078L180.52,556.591L181.461,555.074L182.42,553.526L183.396,551.947L184.389,550.339L185.4,548.7L186.429,547.031L187.474,545.331L188.537,543.603L190.717,540.053L192.967,536.384L195.288,532.596L197.679,528.689L202.678,520.52L207.963,511.881L210.715,507.385L213.539,502.773L216.436,498.045L219.407,493.201L222.452,488.241L225.571,483.167L227.159,480.585L228.765,477.976L230.39,475.338L232.033,472.672L233.695,469.977L235.377,467.253L237.077,464.501L238.795,461.721L240.533,458.912L242.29,456.075L244.066,453.21L245.861,450.316L247.675,447.394L249.508,444.444L251.361,441.466L253.232,438.46L255.123,435.425L257.034,432.363L258.963,429.273L260.912,426.155L262.881,423.008L264.869,419.834L266.876,416.633L268.904,413.403L270.95,410.146L273.017,406.861L275.103,403.548L277.209,400.208L279.334,396.84L281.48,393.445L283.645,390.022L285.831,386.572L288.036,383.094L290.261,379.589L292.507,376.057L294.772,372.497L297.057,368.91L299.363,365.296L301.689,361.655L304.035,357.987L306.402,354.291L308.789,350.569L311.196,346.819L313.622,343.045L315.733,340.659L318.466,339.019L321.565,338.28L324.743,338.508ZM319.99,352.468L317.586,356.213L315.202,359.93L312.839,363.621L310.496,367.284L308.173,370.92L305.871,374.53L303.588,378.112L301.326,381.666L299.084,385.194L296.861,388.694L294.659,392.167L292.477,395.613L290.314,399.031L288.172,402.421L286.049,405.785L283.946,409.12L281.863,412.428L279.799,415.709L277.755,418.962L275.73,422.187L273.726,425.385L271.74,428.555L269.774,431.697L267.828,434.811L265.9,437.897L263.993,440.955L262.104,443.986L260.235,446.988L258.385,449.963L256.554,452.909L254.742,455.827L252.949,458.718L251.175,461.58L249.421,464.413L247.685,467.219L245.968,469.996L244.27,472.745L242.59,475.465L240.93,478.158L239.288,480.821L237.665,483.456L236.06,486.063L234.475,488.641L231.358,493.711L228.316,498.667L225.347,503.508L222.451,508.233L219.629,512.843L216.878,517.336L211.593,525.975L206.594,534.145L204.201,538.055L201.878,541.846L199.625,545.52L197.442,549.075L196.377,550.807L195.329,552.511L194.298,554.184L193.284,555.828L192.287,557.442L191.308,559.026L190.345,560.58L189.4,562.104L188.472,563.598L187.56,565.062L186.666,566.496L185.788,567.9L184.927,569.274L184.083,570.617L183.256,571.931L182.445,573.214L181.651,574.467L180.874,575.689L180.113,576.881L179.369,578.043L178.641,579.174L177.93,580.275L177.235,581.345L176.556,582.384L175.894,583.393L175.569,583.886L175.248,584.372L174.931,584.849L174.618,585.319L174.309,585.782L174.004,586.236L173.703,586.683L173.407,587.122L173.114,587.554L172.825,587.978L172.541,588.394L172.26,588.802L171.983,589.203L171.71,589.596L171.442,589.981L171.177,590.359L170.916,590.728L170.659,591.09L170.407,591.445L170.158,591.791L169.913,592.13L169.672,592.461L169.435,592.784L169.202,593.099L168.973,593.407L168.747,593.707L168.526,593.999L168.309,594.283L168.095,594.56L167.886,594.829L167.68,595.089L167.478,595.342L167.281,595.588L167.087,595.825L166.897,596.055L166.71,596.277L166.528,596.49L166.35,596.697L166.175,596.895L166.004,597.085L165.837,597.268L165.674,597.442L165.515,597.609L165.36,597.768L165.208,597.919L165.06,598.062L164.916,598.198L164.846,598.262L164.776,598.325L164.708,598.386L164.64,598.445L164.573,598.502L164.508,598.556L164.443,598.609L164.379,598.66L164.316,598.709L164.254,598.756L164.193,598.801L164.133,598.844L164.074,598.885L164.015,598.924L163.958,598.961L163.902,598.996L163.846,599.029L163.792,599.06L163.739,599.089L163.686,599.116L163.634,599.141L163.584,599.164L163.534,599.186L163.485,599.205L163.437,599.222L163.39,599.237L163.344,599.25L163.299,599.262L163.255,599.271L163.212,599.278L163.174,599.283L163.135,599.286L163.095,599.287L163.055,599.285L163.013,599.282L162.972,599.276L162.929,599.268L162.886,599.257L162.842,599.245L162.798,599.23L162.753,599.214L162.707,599.195L162.661,599.174L162.614,599.151L162.566,599.125L162.517,599.098L162.468,599.069L162.419,599.037L162.368,599.003L162.317,598.968L162.266,598.93L162.214,598.89L162.161,598.848L162.107,598.804L162.053,598.758L161.998,598.71L161.943,598.66L161.887,598.608L161.83,598.554L161.773,598.498L161.715,598.44L161.657,598.38L161.598,598.318L161.538,598.255L161.478,598.189L161.417,598.121L161.355,598.051L161.293,597.98L161.167,597.83L161.039,597.674L160.909,597.51L160.776,597.338L160.641,597.159L160.503,596.973L160.364,596.779L160.222,596.578L160.078,596.37L159.932,596.155L159.784,595.933L159.633,595.705L159.481,595.469L159.326,595.226L159.17,594.977L159.011,594.721L158.85,594.458L158.688,594.189L158.523,593.914L158.356,593.632L158.188,593.344L158.017,593.049L157.845,592.749L157.671,592.442L157.495,592.129L157.317,591.81L157.138,591.486L156.956,591.155L156.773,590.819L156.588,590.476L156.401,590.129L156.213,589.775L156.023,589.417L155.832,589.052L155.638,588.683L155.444,588.308L155.247,587.927L155.049,587.542L154.85,587.152L154.649,586.756L154.446,586.355L154.242,585.95L154.037,585.54L153.83,585.125L153.622,584.705L153.201,583.851L152.775,582.98L152.344,582.091L151.908,581.185L151.467,580.263L151.021,579.325L150.57,578.371L150.116,577.403L149.657,576.42L149.194,575.424L148.728,574.414L148.258,573.392L147.784,572.358L147.307,571.312L146.827,570.255L146.344,569.188L145.858,568.11L145.37,567.024L144.879,565.928L144.386,564.824L143.891,563.712L143.394,562.593L142.895,561.467L142.395,560.335L141.893,559.197L141.39,558.054L140.886,556.907L140.381,555.755L139.37,553.442L138.357,551.119L137.344,548.791L136.333,546.461L135.324,544.135L134.319,541.816L132.328,537.217L131.344,534.946L130.37,532.7L129.407,530.483L128.456,528.299L127.52,526.152L126.598,524.048L126.144,523.012L125.693,521.989L125.247,520.978L124.806,519.981L124.37,518.997L123.939,518.027L123.513,517.072L123.092,516.133L122.677,515.209L122.268,514.302L121.864,513.411L121.467,512.538L121.076,511.683L120.691,510.847L120.313,510.029L119.941,509.232L119.576,508.454L119.219,507.697L118.869,506.961L118.526,506.247L118.191,505.555L117.864,504.886L117.703,504.56L117.544,504.24L117.388,503.927L117.233,503.619L117.081,503.317L116.93,503.021L116.782,502.732L116.636,502.449L116.492,502.172L116.35,501.902L116.211,501.638L116.073,501.381L115.938,501.131L115.805,500.887L115.675,500.65L115.547,500.42L115.421,500.197L115.297,499.981L115.176,499.771L115.057,499.569L114.941,499.375L114.827,499.187L114.716,499.007L114.607,498.834L114.5,498.668L114.397,498.51L114.295,498.36L114.197,498.217L114.1,498.082L114.007,497.955L113.916,497.836L113.828,497.724L113.742,497.621L113.701,497.572L113.659,497.525L113.619,497.481L113.579,497.438L113.54,497.398L113.502,497.359L113.222,497.479L112.941,497.601L112.662,497.725L112.382,497.851L112.103,497.979L111.824,498.109L111.545,498.241L111.266,498.376L110.988,498.512L110.71,498.65L110.433,498.79L110.156,498.932L109.879,499.076L109.602,499.222L109.326,499.37L109.05,499.519L108.775,499.671L108.499,499.824L108.225,499.979L107.95,500.136L107.676,500.294L107.403,500.455L107.13,500.617L106.857,500.78L106.584,500.945L106.312,501.112L106.041,501.281L105.77,501.451L105.499,501.623L105.229,501.796L104.959,501.971L104.69,502.147L104.421,502.325L104.152,502.504L103.884,502.685L103.617,502.867L103.35,503.051L103.083,503.236L102.817,503.423L102.552,503.61L102.287,503.799L102.023,503.99L101.759,504.182L101.495,504.375L101.232,504.569L100.97,504.764L100.709,504.961L100.447,505.159L100.187,505.358L99.927,505.558L99.667,505.759L99.408,505.962L99.15,506.165L98.893,506.37L98.636,506.576L98.379,506.782L98.123,506.99L97.868,507.199L97.614,507.408L97.36,507.619L97.106,507.83L96.854,508.043L96.602,508.256L96.351,508.47L96.1,508.685L95.85,508.901L95.601,509.118L95.352,509.335L95.104,509.554L94.857,509.772L94.611,509.992L94.365,510.212L94.12,510.434L93.876,510.655L93.632,510.878L93.39,511.101L93.148,511.324L92.906,511.548L92.666,511.773L92.426,511.998L92.187,512.224L91.949,512.45L91.712,512.677L91.475,512.904L91.239,513.132L91.005,513.36L90.77,513.588L90.537,513.817L90.305,514.046L90.073,514.276L89.842,514.505L89.612,514.736L89.155,515.197L88.701,515.658L88.251,516.121L87.804,516.584L87.361,517.048L86.922,517.512L86.486,517.976L86.055,518.44L85.627,518.904L85.203,519.368L84.783,519.83L84.367,520.293L83.955,520.754L83.547,521.214L83.143,521.673L82.744,522.131L82.349,522.587L81.958,523.042L81.571,523.494L81.189,523.945L80.812,524.393L80.439,524.839L80.071,525.283L79.707,525.724L79.348,526.162L78.993,526.597L78.644,527.029L78.299,527.458L77.96,527.883L77.625,528.304L77.295,528.722L76.971,529.135L76.651,529.545L76.337,529.95L76.028,530.351L75.724,530.747L75.425,531.138L75.132,531.525L74.844,531.906L74.562,532.282L74.285,532.652L74.014,533.017L73.749,533.376L73.489,533.729L73.235,534.076L72.987,534.417L72.745,534.751L72.509,535.079L72.278,535.4L72.054,535.714L71.835,536.021L71.623,536.321L71.218,536.898L70.837,537.444L70.482,537.957L70.153,538.438L69.85,538.883L69.574,539.292L69.325,539.664L69.105,539.996L68.912,540.289L68.747,540.54L68.612,540.749L68.43,541.032L68.369,541.128L68.373,541.151L68.38,541.18L68.398,541.244L68.422,541.317L68.451,541.4L68.485,541.492L68.525,541.594L68.571,541.704L68.621,541.823L68.678,541.952L68.739,542.089L68.806,542.235L68.878,542.39L68.955,542.553L69.037,542.725L69.124,542.906L69.217,543.095L69.416,543.499L69.636,543.935L69.875,544.404L70.134,544.905L70.411,545.438L70.707,546.001L71.021,546.594L71.353,547.218L71.702,547.87L72.069,548.551L72.453,549.261L72.854,549.997L73.271,550.761L73.704,551.551L74.153,552.367L74.617,553.208L75.096,554.074L75.59,554.965L76.099,555.878L76.622,556.815L77.159,557.775L77.709,558.756L78.273,559.759L78.849,560.783L79.439,561.827L80.04,562.89L80.654,563.973L81.279,565.075L81.916,566.195L82.563,567.332L83.222,568.486L83.891,569.656L84.57,570.843L85.259,572.045L85.958,573.261L86.665,574.492L87.382,575.736L88.107,576.994L88.841,578.264L89.582,579.545L90.331,580.839L91.088,582.143L91.851,583.458L92.621,584.782L93.398,586.115L94.18,587.457L94.969,588.808L95.763,590.165L96.562,591.53L97.366,592.901L98.175,594.278L98.987,595.661L99.804,597.048L100.624,598.439L101.448,599.834L102.274,601.232L103.104,602.633L103.935,604.035L104.769,605.439L105.604,606.844L106.441,608.249L107.279,609.654L108.118,611.058L108.957,612.461L109.796,613.862L110.635,615.26L111.474,616.656L112.312,618.048L113.149,619.435L113.985,620.818L114.819,622.196L115.651,623.568L116.48,624.934L117.307,626.292L118.131,627.644L118.952,628.987L119.769,630.322L120.582,631.647L121.392,632.963L122.196,634.269L122.996,635.564L123.791,636.847L124.58,638.119L125.364,639.378L126.141,640.624L126.912,641.857L127.677,643.076L128.434,644.279L129.185,645.468L129.927,646.641L130.662,647.797L131.388,648.937L132.106,650.059L132.815,651.163L133.515,652.249L134.205,653.315L134.886,654.362L135.557,655.388L136.217,656.394L136.866,657.379L137.504,658.341L138.131,659.281L138.747,660.198L139.05,660.648L139.35,661.092L139.647,661.529L139.941,661.961L140.232,662.387L140.519,662.806L140.804,663.219L141.085,663.625L141.363,664.026L141.637,664.419L141.908,664.806L142.176,665.187L142.44,665.56L142.701,665.927L142.958,666.287L143.212,666.64L143.462,666.986L143.708,667.325L143.951,667.657L144.19,667.982L144.425,668.299L144.656,668.609L144.884,668.912L145.107,669.207L145.327,669.494L145.543,669.774L145.755,670.047L145.962,670.311L146.166,670.568L146.365,670.816L146.56,671.057L146.752,671.29L146.938,671.515L147.121,671.731L147.427,671.982L147.738,672.234L148.053,672.488L148.374,672.742L148.699,672.997L148.864,673.124L149.03,673.252L149.197,673.379L149.366,673.506L149.536,673.632L149.707,673.759L149.88,673.885L150.054,674.01L150.23,674.135L150.407,674.259L150.586,674.383L150.766,674.506L150.947,674.629L151.13,674.75L151.315,674.871L151.501,674.991L151.689,675.11L151.878,675.228L152.069,675.345L152.262,675.461L152.456,675.575L152.652,675.689L152.849,675.801L153.049,675.911L153.25,676.021L153.452,676.128L153.657,676.235L153.863,676.34L154.071,676.443L154.281,676.544L154.492,676.644L154.706,676.741L154.921,676.837L155.138,676.931L155.357,677.023L155.578,677.114L155.801,677.201L156.025,677.287L156.252,677.371L156.481,677.452L156.711,677.531L156.944,677.608L157.179,677.682L157.415,677.753L157.654,677.823L157.895,677.889L158.138,677.953L158.383,678.014L158.63,678.072L158.754,678.1L158.879,678.128L159.005,678.155L159.13,678.18L159.257,678.206L159.384,678.23L159.512,678.254L159.64,678.277L159.769,678.299L159.898,678.32L160.028,678.341L160.158,678.361L160.289,678.38L160.421,678.398L160.553,678.416L160.685,678.432L160.819,678.448L160.952,678.463L161.087,678.477L161.222,678.49L161.357,678.503L161.493,678.514L161.63,678.525L161.767,678.535L161.905,678.544L162.043,678.552L162.182,678.559L162.322,678.565L162.462,678.571L162.603,678.575L162.745,678.579L162.887,678.581L163.029,678.583L163.172,678.583L163.316,678.583L163.461,678.582L163.606,678.58L163.751,678.577L163.898,678.573L164.045,678.567L164.192,678.561L164.34,678.554L164.489,678.546L164.638,678.537L164.788,678.527L164.939,678.516L165.09,678.503L165.242,678.49L165.395,678.476L165.548,678.46L165.702,678.444L165.856,678.426L166.012,678.408L166.167,678.388L166.324,678.367L166.481,678.345L166.639,678.322L166.797,678.298L166.956,678.273L167.116,678.247L167.276,678.219L167.437,678.19L167.599,678.161L167.761,678.13L167.925,678.098L168.088,678.064L168.253,678.03L168.418,677.994L168.584,677.957L168.75,677.919L168.917,677.88L169.085,677.839L169.254,677.798L169.423,677.755L169.593,677.71L169.763,677.665L169.935,677.618L170.107,677.57L170.279,677.521L170.453,677.471L170.627,677.419L170.802,677.366L170.977,677.312L171.154,677.256L171.331,677.199L171.508,677.141L171.687,677.081L171.866,677.02L172.046,676.958L172.226,676.894L172.408,676.829L172.59,676.763L172.772,676.695L172.956,676.626L173.14,676.556L173.325,676.484L173.511,676.411L173.697,676.336L173.885,676.26L174.073,676.183L174.261,676.104L174.451,676.024L174.641,675.942L174.832,675.859L175.024,675.774L175.216,675.688L175.41,675.6L175.604,675.511L175.798,675.421L175.994,675.329L176.19,675.235L176.387,675.14L176.585,675.044L176.784,674.946L176.983,674.846L177.184,674.745L177.385,674.643L177.586,674.538L177.789,674.433L177.992,674.325L178.197,674.217L178.402,674.106L178.607,673.994L178.814,673.881L179.021,673.766L179.229,673.649L179.438,673.53L179.648,673.41L179.859,673.289L180.07,673.166L180.282,673.041L180.495,672.914L180.709,672.786L180.924,672.656L181.14,672.525L181.356,672.391L181.573,672.257L181.791,672.12L181.83,672.077L181.871,672.031L181.913,671.982L181.957,671.93L182.05,671.816L182.148,671.689L182.253,671.55L182.365,671.399L182.482,671.235L182.606,671.059L182.736,670.871L182.872,670.67L183.014,670.457L183.163,670.232L183.318,669.995L183.479,669.746L183.647,669.485L183.821,669.212L184.001,668.927L184.187,668.63L184.38,668.322L184.578,668.001L184.995,667.325L185.436,666.603L185.903,665.835L186.394,665.02L186.911,664.161L187.452,663.257L188.019,662.308L188.611,661.315L189.87,659.198L192.688,654.452L194.248,651.828L195.066,650.455L195.909,649.042L196.777,647.589L197.67,646.096L198.588,644.564L199.531,642.994L200.499,641.385L201.493,639.738L202.512,638.054L203.555,636.332L204.624,634.573L205.719,632.778L206.838,630.947L207.982,629.081L209.152,627.179L209.746,626.215L210.347,625.242L210.954,624.26L211.567,623.271L212.186,622.272L212.812,621.265L213.444,620.25L214.083,619.226L214.727,618.194L215.378,617.153L216.036,616.104L216.699,615.048L217.369,613.983L218.045,612.909L218.728,611.828L219.416,610.739L220.111,609.642L220.813,608.537L221.52,607.424L222.234,606.303L222.955,605.175L223.681,604.039L224.414,602.895L225.153,601.743L225.899,600.584L226.651,599.418L227.409,598.244L228.173,597.062L228.944,595.873L229.721,594.677L230.505,593.474L231.294,592.263L232.09,591.045L232.893,589.82L233.701,588.588L234.516,587.349L235.337,586.103L236.165,584.85L236.999,583.59L237.839,582.323L238.686,581.05L239.539,579.769L240.398,578.482L241.263,577.189L242.135,575.888L243.013,574.581L243.898,573.268L244.788,571.948L245.685,570.622L246.589,569.289L247.499,567.95L248.415,566.605L249.337,565.254L250.266,563.896L251.201,562.533L252.142,561.163L253.09,559.787L254.044,558.405L255.004,557.017L255.971,555.624L256.944,554.224L257.923,552.819L258.909,551.408L259.901,549.992L260.899,548.569L261.904,547.141L262.915,545.708L263.932,544.269L264.956,542.825L265.985,541.375L267.022,539.92L268.064,538.459L269.113,536.994L270.169,535.523L271.23,534.047L272.298,532.565L273.373,531.079L274.453,529.588L275.54,528.092L276.634,526.59L277.733,525.084L278.839,523.574L279.952,522.058L281.07,520.538L282.195,519.013L283.327,517.483L284.464,515.949L285.609,514.41L286.759,512.867L287.916,511.319L289.079,509.767L290.248,508.21L291.424,506.65L292.606,505.085L293.795,503.516L294.989,501.942L296.191,500.365L297.398,498.783L298.612,497.198L299.832,495.608L301.059,494.015L302.292,492.418L303.531,490.817L304.777,489.212L306.029,487.603L307.287,485.991L308.552,484.376L309.823,482.756L311.1,481.133L312.384,479.507L313.674,477.877L314.971,476.244L316.273,474.607L317.583,472.968L318.898,471.325L320.22,469.678L321.548,468.029L322.883,466.377L324.224,464.721L325.571,463.063L326.925,461.401L328.285,459.737L329.651,458.07L331.024,456.4L332.403,454.727L333.789,453.052L335.181,451.374L335.879,450.534L336.579,449.693L337.281,448.852L337.984,448.01L338.688,447.167L339.395,446.324L340.103,445.48L340.812,444.636L341.523,443.791L342.236,442.945L342.95,442.099L343.666,441.252L344.383,440.405L345.102,439.557L345.823,438.708L346.545,437.859L347.269,437.01L347.994,436.159L348.721,435.309L349.45,434.458L350.18,433.606L350.912,432.753L351.645,431.901L352.38,431.047L353.117,430.193L353.855,429.339L354.595,428.484L355.336,427.629L356.079,426.773L356.823,425.917L357.57,425.06L358.317,424.203L359.067,423.345L359.817,422.487L360.57,421.628L361.324,420.769L362.08,419.91L362.837,419.05L363.596,418.189L364.356,417.329L365.118,416.467L365.882,415.606L366.647,414.744L367.414,413.882L368.182,413.019L368.952,412.156L369.724,411.292L370.497,410.428L371.272,409.564L372.048,408.699L372.826,407.834L373.606,406.969L374.387,406.104L375.17,405.238L375.954,404.371L376.74,403.505L377.528,402.638L378.317,401.771L379.108,400.903L379.9,400.035L380.694,399.167L381.49,398.299L382.287,397.43L383.086,396.561L383.886,395.692L384.688,394.822L385.491,393.952L386.296,393.082L387.103,392.212L387.911,391.342L388.721,390.471L389.533,389.6L390.346,388.729L391.161,387.858L391.977,386.986L392.795,386.114L393.614,385.242L394.435,384.37L395.258,383.498L396.082,382.625L396.908,381.753L397.736,380.88L398.565,380.007L399.395,379.134L400.228,378.26L401.062,377.387L401.897,376.513L402.734,375.64L403.573,374.766L404.413,373.892L405.255,373.018L406.098,372.144L406.943,371.269L407.79,370.395L407.143,370.35L406.498,370.305L405.856,370.258L405.216,370.209L404.578,370.159L403.942,370.109L403.309,370.057L402.679,370.003L402.05,369.949L401.424,369.893L400.8,369.836L400.179,369.778L399.559,369.719L398.943,369.658L398.328,369.597L397.716,369.534L397.106,369.47L396.499,369.405L395.893,369.339L395.291,369.272L394.69,369.204L394.092,369.135L393.496,369.065L392.903,368.993L392.312,368.921L391.723,368.848L391.137,368.773L390.553,368.698L389.971,368.622L389.392,368.545L388.815,368.466L388.241,368.387L387.668,368.307L387.099,368.226L386.531,368.144L385.966,368.061L385.404,367.978L384.843,367.893L384.285,367.808L383.73,367.721L383.177,367.634L382.626,367.546L382.077,367.457L381.531,367.368L380.988,367.277L380.447,367.186L379.908,367.094L379.371,367.002L378.837,366.908L378.306,366.814L377.776,366.719L377.249,366.623L376.725,366.527L376.203,366.43L375.683,366.332L375.166,366.234L374.651,366.135L374.139,366.035L373.629,365.935L373.121,365.834L372.616,365.733L372.113,365.63L371.613,365.528L371.115,365.424L370.619,365.32L370.126,365.216L369.636,365.111L369.147,365.006L368.662,364.9L368.178,364.793L367.697,364.686L367.219,364.579L366.743,364.471L366.269,364.362L365.798,364.253L365.329,364.144L364.863,364.034L364.399,363.924L363.937,363.814L363.478,363.703L363.022,363.591L362.568,363.48L362.116,363.368L361.667,363.255L361.22,363.142L360.776,363.029L360.334,362.916L359.895,362.802L359.458,362.688L359.024,362.574L358.592,362.46L358.162,362.345L357.735,362.23L357.311,362.115L356.889,361.999L356.469,361.883L356.052,361.768L355.637,361.652L355.225,361.535L354.815,361.419L354.408,361.302L354.004,361.186L353.601,361.069L353.202,360.952L352.41,360.718L351.628,360.483L350.856,360.249L350.094,360.014L349.342,359.779L348.6,359.544L347.868,359.31L347.146,359.075L346.434,358.841L345.733,358.607L345.041,358.374L344.36,358.141L343.688,357.909L343.027,357.678L342.376,357.448L341.735,357.218L341.105,356.99L340.484,356.763L339.874,356.537L339.274,356.312L338.684,356.089L338.104,355.868L337.535,355.648L336.976,355.429L336.427,355.213L335.889,354.998L335.361,354.785L334.843,354.575L334.336,354.366L333.839,354.16L333.352,353.956L332.876,353.755L332.41,353.556L331.954,353.359L331.509,353.166L331.075,352.975L330.651,352.787L330.237,352.602L329.834,352.42L329.441,352.242L329.059,352.066L328.687,351.894L328.326,351.726L327.976,351.561L327.636,351.399L327.306,351.241L326.987,351.087L326.679,350.937L326.382,350.791L326.095,350.65L325.819,350.512L325.553,350.378L325.298,350.249L325.054,350.125L324.82,350.005L324.598,349.889L324.184,349.673L323.814,349.476L323.487,349.299L323.203,349.144L322.962,349.01L322.765,348.9L322.612,348.812L322.502,348.749L322.414,348.697L319.99,352.468ZM68.368,541.129L68.369,541.128L68.368,541.125L68.368,541.129Z" style="fill-opacity:0.2;"/>
    </g>
</svg>
